<?xml version="1.0" encoding="utf-8"?>
<!-- Generator: Adobe Illustrator 23.0.2, SVG Export Plug-In . SVG Version: 6.00 Build 0)  -->
<svg version="1.1" id="Layer_1" xmlns="http://www.w3.org/2000/svg" xmlns:xlink="http://www.w3.org/1999/xlink" x="0px" y="0px"
	 viewBox="0 0 126.68 41.43" enable-background="new 0 0 126.68 41.43" xml:space="preserve">
<path fill="#006CB0" d="M55.97,13.15h0.5l0.05,15.46l9.5-0.01v0.5l-9.99,0L55.97,13.15z"/>
<path fill="#006CB0" d="M76.11,21.46l-7.34,0l0.02,7.14l10.43-0.01v0.5L68.29,29.1l-0.05-15.95l10.92-0.01l0,0.5l-10.43,0.01
	l0.04,7.32l7.33,0L76.11,21.46z"/>
<path fill="#006CB0" d="M47.63,13.15l-6.14,0.01l0.05,15.95h0.5l-0.02-4.9l5.61,0c2.96,0,5.37-2.48,5.37-5.53
	S50.59,13.15,47.63,13.15z M47.63,23.72l-5.61,0l-0.03-10.07l5.64-0.01c2.69,0,4.88,2.26,4.88,5.04S50.32,23.72,47.63,23.72z"/>
<path fill="#006CB0" d="M95.9,24.81c-1.08,2.77-3.09,4.37-6.94,4.37c-4.8,0-7.55-3.66-7.55-8.05c0-4.76,3.09-8.09,7.72-8.09
	c3.87,0,6.01,1.92,6.77,4.48h-0.48c-0.71-2.18-2.68-4.07-6.29-4.07c-4.3,0-7.25,3.07-7.25,7.66c0,4.17,2.7,7.64,7.12,7.64
	c3.53,0,5.39-1.47,6.42-3.96L95.9,24.81z"/>
<path fill="#006CB0" d="M113.76,20.96c0,4.59-2.94,8.2-7.85,8.2c-4.61,0-7.79-3.53-7.79-8.07c0-4.35,3.22-8.05,7.87-8.05
	C110.45,13.05,113.76,16.53,113.76,20.96z M98.59,21.07c0,4.07,2.86,7.68,7.33,7.68c4.3,0,7.35-3.18,7.35-7.74
	c0-4.07-3.01-7.55-7.31-7.55C101.88,13.46,98.59,16.77,98.59,21.07z"/>
<path fill="#41B6E6" d="M28.28,19.47c2.7,0,4.46-2.28,4.46-4.46c0-1.2-0.52-2.51-1.57-3.39c-2.25-1.88-5.09-2.93-8.02-2.93
	c-5.96,0-11.09,4.24-12.21,10.1c1.09,0.36,2.29,0.16,3.21-0.55c0.58-0.44,0.99-1.04,1.2-1.74l0.4,0.12
	c-0.24,0.78-0.7,1.45-1.35,1.94c-1.03,0.79-2.37,1.02-3.6,0.62c-0.1-0.03-0.73-0.3-0.97-0.48c0.57,1.73,2.14,2.43,3.07,2.52
	c1,0.13,1.98-0.14,2.77-0.75l0.26,0.33c-0.74,0.57-1.8,0.99-3.08,0.83c-0.79-0.1-1.52-0.42-2.12-0.93
	c-0.16,7.31,5.57,12.83,12.42,12.83s12.73-5.75,12.42-12.86c-1.59,2.33-4.09,4.17-4.63,4.55c-0.5,3.39-3.46,5.94-6.89,5.94
	c-3.84,0-6.97-3.13-6.97-6.97c0-3.93,3.18-7.06,7.35-6.96C24.42,17.25,25.59,19.47,28.28,19.47z M25.38,10.68
	c1.22,0,2.22,1,2.22,2.22s-1,2.22-2.22,2.22s-2.22-1-2.22-2.22S24.16,10.68,25.38,10.68z M15.92,26l-1.24,0.95
	c-0.01,0.01-0.06,0.02-0.08-0.02l-0.76-1.51c-0.01-0.02-0.01-0.05,0.01-0.06c0.82-0.75,1.21-1.62,1.26-2.1l0.42,0.02
	c0,0.04-0.06,1.05-1.2,2.19l0.44,0.88l0.89-0.68L15.92,26z"/>
<path fill="#8BBEE8" d="M25.38,14.69c0.99,0,1.8-0.81,1.8-1.8s-0.81-1.8-1.8-1.8c-0.99,0-1.8,0.81-1.8,1.8S24.39,14.69,25.38,14.69z
	 M24.95,11.57c0.15,0,0.28,0.13,0.28,0.28c0,0.15-0.13,0.28-0.28,0.28s-0.28-0.13-0.28-0.28C24.67,11.69,24.79,11.57,24.95,11.57z
	 M23.73,12.95c0-0.26,0.21-0.48,0.48-0.48c0.26,0,0.48,0.21,0.48,0.48c0,0.26-0.21,0.48-0.48,0.48
	C23.94,13.42,23.73,13.21,23.73,12.95z"/>
<path fill="#29ABE2" d="M19.53,26.24l0.34-0.67c-0.28-0.28-0.51-0.57-0.7-0.87C19.21,25.23,19.34,25.75,19.53,26.24z"/>
<path fill="#29ABE2" d="M24.4,21.39c-1.26,0.16-2.5-0.28-3.36-1.22c-0.55,0.46-0.99,1.03-1.33,1.68
	C21.96,23.3,24.02,21.87,24.4,21.39z"/>
<path fill="#006CB0" d="M24.25,17.77c-0.02,0-0.12-0.01-0.15-0.01c-2.48,0-6.55,2.06-6.55,6.55c0,3.61,2.94,6.55,6.55,6.55
	c3.22,0,6-2.4,6.47-5.59c-0.2-0.47-0.7-0.87-1.04-1.1c0.36,1.9-0.82,5.79-4.95,5.81c-3.17,0-5.72-2.58-5.74-5.74
	c-0.02-3.92,3.34-5.71,5.74-5.74c0.08,0,0.16,0,0.25,0.01C24.62,18.28,24.43,18.04,24.25,17.77z"/>
<path fill="#8BBEE8" d="M31.95,12.06c-0.1-0.9-0.92-1.68-1.91-1.59C30.53,10.72,31.78,11.77,31.95,12.06z"/>
<path fill="#006CB0" d="M17.92,9.43c-1.48-0.45-5.91-1.53-9.66,0.34c-0.06,2.32,3.34,3.88,4.14,4.22
	C13.78,11.97,15.69,10.4,17.92,9.43z"/>
</svg>
